<?xml version="1.0" encoding="UTF-8"?>
<svg xmlns="http://www.w3.org/2000/svg" width="37" height="37" viewBox="0 0 29 35" version="1.1">
<g id="surface1">
<path style=" stroke:none;fill-rule:nonzero;fill:rgb(0%,0%,0%);fill-opacity:1;" d="M 24.21875 18.558594 C 24.269531 23.84375 28.949219 25.605469 29 25.628906 C 28.960938 25.75 28.253906 28.132812 26.535156 30.597656 C 25.050781 32.722656 23.511719 34.84375 21.082031 34.886719 C 18.699219 34.929688 17.929688 33.5 15.207031 33.5 C 12.480469 33.5 11.628906 34.84375 9.371094 34.929688 C 7.027344 35.019531 5.242188 32.628906 3.746094 30.507812 C 0.6875 26.171875 -1.648438 18.253906 1.488281 12.910156 C 3.046875 10.253906 5.835938 8.574219 8.859375 8.53125 C 11.160156 8.488281 13.332031 10.046875 14.738281 10.046875 C 16.140625 10.046875 18.78125 8.171875 21.554688 8.445312 C 22.714844 8.496094 25.976562 8.90625 28.070312 11.914062 C 27.898438 12.015625 24.179688 14.140625 24.21875 18.558594 M 19.738281 5.578125 C 20.980469 4.101562 21.820312 2.046875 21.589844 0 C 19.796875 0.0703125 17.628906 1.171875 16.34375 2.648438 C 15.191406 3.953125 14.183594 6.046875 14.453125 8.050781 C 16.453125 8.203125 18.496094 7.054688 19.738281 5.578125 "/>
</g>
</svg>
