<svg width="21" height="21" viewBox="0 0 21 21" fill="none" xmlns="http://www.w3.org/2000/svg">
    <path fill-rule="evenodd" clip-rule="evenodd" d="M0 6.60514C0 4.58226 1.63989 2.94238 3.66279 2.94238H17.3372C19.3601 2.94238 21 4.58226 21 6.60514V17.337C21 19.3599 19.3601 20.9998 17.3372 20.9998H3.66279C1.63989 20.9998 0 19.3599 0 17.337V6.60514ZM3.66279 4.40749C2.44905 4.40749 1.46512 5.39141 1.46512 6.60514V17.337C1.46512 18.5507 2.44905 19.5347 3.66279 19.5347H17.3372C18.551 19.5347 19.5349 18.5507 19.5349 17.337V6.60514C19.5349 5.39141 18.551 4.40749 17.3372 4.40749H3.66279Z" fill="#737989"/>
    <path fill-rule="evenodd" clip-rule="evenodd" d="M5.6161 0.000232378C6.02068 9.10467e-05 6.34877 0.327951 6.34891 0.732529L6.34989 3.67518C6.35002 4.07976 6.02215 4.40785 5.61757 4.40799C5.21299 4.40813 4.8849 4.08027 4.88477 3.6757L4.88379 0.73304C4.88365 0.328463 5.21152 0.00037371 5.6161 0.000232378Z" fill="#737989"/>
    <path fill-rule="evenodd" clip-rule="evenodd" d="M15.3837 0C15.7883 0 16.1162 0.327975 16.1162 0.732552V3.30291C16.1162 3.70749 15.7883 4.03546 15.3837 4.03546C14.9791 4.03546 14.6511 3.70749 14.6511 3.30291V0.732552C14.6511 0.327975 14.9791 0 15.3837 0Z" fill="#737989"/>
    <path fill-rule="evenodd" clip-rule="evenodd" d="M3.90698 7.92982C3.90698 7.52524 4.23496 7.19727 4.63954 7.19727L16.3605 7.19727C16.7651 7.19727 17.093 7.52524 17.093 7.92982C17.093 8.3344 16.7651 8.66237 16.3605 8.66237L4.63954 8.66237C4.23496 8.66237 3.90698 8.3344 3.90698 7.92982Z" fill="#737989"/>
</svg>

