<svg width="29" height="29" viewBox="0 0 29 29" fill="none" xmlns="http://www.w3.org/2000/svg">
    <path d="M1.0129 7.75575C1.01312 4.03112 4.03271 1.0119 7.75734 1.01213L21.2415 1.01294C24.9661 1.01316 27.9854 4.03275 27.9851 7.75738L27.9843 21.2416C27.9841 24.9662 24.9645 27.9854 21.2399 27.9852L7.75571 27.9844C4.03108 27.9841 1.01186 24.9645 1.01209 21.2399L1.0129 7.75575Z" fill="#6146C6"/>
    <path fill-rule="evenodd" clip-rule="evenodd" d="M0.00124168 7.75563C0.00149976 3.47231 3.47403 0.000209221 7.75735 0.000467308L21.2415 0.00127978C25.5248 0.00153787 28.9969 3.47407 28.9967 7.75739L28.9959 21.2416C28.9956 25.5249 25.5231 28.997 21.2398 28.9967L7.7556 28.9959C3.47227 28.9957 0.000171113 25.5231 0.0004292 21.2398L0.00124168 7.75563ZM7.75723 2.02368C4.59129 2.02349 2.02464 4.58982 2.02445 7.75576L2.02364 21.2399C2.02345 24.4059 4.58979 26.9725 7.75572 26.9727L21.2399 26.9735C24.4058 26.9737 26.9725 24.4074 26.9727 21.2414L26.9735 7.75726C26.9737 4.59133 24.4073 2.02468 21.2414 2.02449L7.75723 2.02368Z" fill="#6146C6"/>
    <path fill-rule="evenodd" clip-rule="evenodd" d="M19.9228 9.83715C20.3698 10.1724 20.4604 10.8064 20.1252 11.2534L14.4481 18.8228C14.0041 19.4148 13.1239 19.4374 12.6501 18.8689L8.90637 14.3764C8.5487 13.9472 8.60669 13.3093 9.03589 12.9517C9.46509 12.594 10.103 12.652 10.4606 13.0812L13.4947 16.722L18.5066 10.0395C18.8418 9.59251 19.4759 9.50193 19.9228 9.83715Z" fill="white"/>
</svg>
