<svg width="23" height="23" viewBox="0 0 23 23" fill="none" xmlns="http://www.w3.org/2000/svg">
    <path fill-rule="evenodd" clip-rule="evenodd" d="M11.5 1.60465C6.03495 1.60465 1.60465 6.03495 1.60465 11.5C1.60465 16.9651 6.03495 21.3953 11.5 21.3953C16.9651 21.3953 21.3953 16.9651 21.3953 11.5C21.3953 6.03495 16.9651 1.60465 11.5 1.60465ZM0 11.5C0 5.14873 5.14873 0 11.5 0C17.8513 0 23 5.14873 23 11.5C23 17.8513 17.8513 23 11.5 23C5.14873 23 0 17.8513 0 11.5Z" fill="white"/>
    <path fill-rule="evenodd" clip-rule="evenodd" d="M11.5001 4.2793C11.9432 4.2793 12.3024 4.63851 12.3024 5.08162V11.6593L15.223 14.0932C15.5634 14.3768 15.6094 14.8828 15.3257 15.2232C15.0421 15.5636 14.5362 15.6096 14.1957 15.3259L10.9864 12.6515C10.8035 12.499 10.6978 12.2732 10.6978 12.0351V5.08162C10.6978 4.63851 11.057 4.2793 11.5001 4.2793Z" fill="white"/>
</svg>
