<svg width="29" height="29" viewBox="0 0 29 29" fill="none" xmlns="http://www.w3.org/2000/svg">
    <path fill-rule="evenodd" clip-rule="evenodd" d="M20.7925 29H8.20604C3.29782 29 0 25.5554 0 20.4292V8.57077C0 3.44457 3.29782 0 8.20604 0H13.5393C14.1299 0 14.6091 0.479245 14.6091 1.06974C14.6091 1.66024 14.1299 2.13948 13.5393 2.13948H8.20604C4.52024 2.13948 2.13959 4.66408 2.13959 8.57077V20.4292C2.13959 24.3359 4.52024 26.8605 8.20604 26.8605H20.7925C24.4783 26.8605 26.8604 24.3359 26.8604 20.4292V14.684C26.8604 14.0935 27.3397 13.6143 27.9302 13.6143C28.5207 13.6143 29 14.0935 29 14.684V20.4292C29 25.5554 25.7008 29 20.7925 29" fill="#7159CC"/>
    <path fill-rule="evenodd" clip-rule="evenodd" d="M9.79391 19.1172H14.039C14.5809 19.1172 15.0885 18.908 15.4721 18.525L26.1798 7.83416C26.619 7.39566 26.8614 6.81192 26.8614 6.19118C26.8614 5.56901 26.619 4.98385 26.1798 4.54534L24.4444 2.81266C23.536 1.90859 22.0587 1.90859 21.1489 2.81266L10.4926 13.4522C10.1233 13.821 9.91369 14.3107 9.90085 14.8304L9.79391 19.1172ZM14.0389 21.2535H8.69725C8.4092 21.2535 8.13256 21.1367 7.9315 20.9303C7.73044 20.7253 7.62064 20.4477 7.62777 20.1586L7.76181 14.7783C7.7889 13.7077 8.22097 12.7011 8.97959 11.9423H8.98102L19.6373 1.30272C21.3799 -0.434239 24.2133 -0.434239 25.9558 1.30272L27.6912 3.0354C28.5368 3.87825 29.0017 4.99873 29.0003 6.19181C29.0003 7.3849 28.5354 8.50396 27.6912 9.34538L16.9836 20.0362C16.1979 20.8207 15.1512 21.2535 14.0389 21.2535Z" fill="#7159CC"/>
</svg>
