<svg width="12" height="12" viewBox="0 0 12 12" fill="none" xmlns="http://www.w3.org/2000/svg">
    <path d="M3.46608 5.75013C3.46608 6.59104 2.7844 7.27273 1.94349 7.27273C1.10259 7.27273 0.420898 6.59104 0.420898 5.75013C0.420898 4.90923 1.10259 4.22754 1.94349 4.22754C2.7844 4.22754 3.46608 4.90923 3.46608 5.75013Z" fill="#BCBCBC"/>
    <path fill-rule="evenodd" clip-rule="evenodd" d="M1.94331 4.64807C1.33476 4.64807 0.841433 5.1414 0.841433 5.74995C0.841433 6.3585 1.33476 6.85183 1.94331 6.85183C2.55186 6.85183 3.04519 6.3585 3.04519 5.74995C3.04519 5.1414 2.55186 4.64807 1.94331 4.64807ZM0 5.74995C0 4.67669 0.870049 3.80664 1.94331 3.80664C3.01657 3.80664 3.88662 4.67669 3.88662 5.74995C3.88662 6.82321 3.01657 7.69326 1.94331 7.69326C0.870049 7.69326 0 6.82321 0 5.74995Z" fill="#BCBCBC"/>
    <path d="M11.0791 1.94349C11.0791 2.7844 10.3974 3.46608 9.55653 3.46608C8.71562 3.46608 8.03394 2.7844 8.03394 1.94349C8.03394 1.10259 8.71562 0.420898 9.55653 0.420898C10.3974 0.420898 11.0791 1.10259 11.0791 1.94349Z" fill="#BCBCBC"/>
    <path fill-rule="evenodd" clip-rule="evenodd" d="M9.55635 0.841433C8.9478 0.841433 8.45447 1.33476 8.45447 1.94331C8.45447 2.55186 8.9478 3.04519 9.55635 3.04519C10.1649 3.04519 10.6582 2.55186 10.6582 1.94331C10.6582 1.33476 10.1649 0.841433 9.55635 0.841433ZM7.61304 1.94331C7.61304 0.870049 8.48309 0 9.55635 0C10.6296 0 11.4997 0.870049 11.4997 1.94331C11.4997 3.01657 10.6296 3.88662 9.55635 3.88662C8.48309 3.88662 7.61304 3.01657 7.61304 1.94331Z" fill="#BCBCBC"/>
    <path d="M11.0791 9.5558C11.0791 10.3967 10.3974 11.0784 9.55653 11.0784C8.71562 11.0784 8.03394 10.3967 8.03394 9.5558C8.03394 8.71489 8.71562 8.0332 9.55653 8.0332C10.3974 8.0332 11.0791 8.71489 11.0791 9.5558Z" fill="#BCBCBC"/>
    <path fill-rule="evenodd" clip-rule="evenodd" d="M9.55635 8.45471C8.9478 8.45471 8.45447 8.94804 8.45447 9.55659C8.45447 10.1651 8.9478 10.6585 9.55635 10.6585C10.1649 10.6585 10.6582 10.1651 10.6582 9.55659C10.6582 8.94804 10.1649 8.45471 9.55635 8.45471ZM7.61304 9.55659C7.61304 8.48333 8.48309 7.61328 9.55635 7.61328C10.6296 7.61328 11.4997 8.48333 11.4997 9.55659C11.4997 10.6299 10.6296 11.4999 9.55635 11.4999C8.48309 11.4999 7.61304 10.6299 7.61304 9.55659Z" fill="#BCBCBC"/>
    <path fill-rule="evenodd" clip-rule="evenodd" d="M8.39682 2.49298C8.5139 2.69368 8.44611 2.95129 8.2454 3.06837L3.88635 5.61115V5.88915L8.2454 8.43193C8.44611 8.54901 8.5139 8.80662 8.39682 9.00732C8.27975 9.20803 8.02213 9.27582 7.82143 9.15874L3.28148 6.51044C3.135 6.42499 3.04492 6.26816 3.04492 6.09858V5.40172C3.04492 5.23214 3.135 5.07531 3.28148 4.98986L7.82143 2.34156C8.02213 2.22448 8.27975 2.29227 8.39682 2.49298Z" fill="#BCBCBC"/>
</svg>
