<svg width="19" height="20" viewBox="0 0 19 20" fill="none" xmlns="http://www.w3.org/2000/svg">
    <path d="M0.730957 6.93945C0.730957 5.2826 2.03966 3.93945 3.65403 3.93945H15.3463C16.9607 3.93945 18.2694 5.2826 18.2694 6.93945V16.25C18.2694 17.9069 16.9607 19.25 15.3463 19.25H3.65403C2.03966 19.25 0.730957 17.9069 0.730957 16.25V6.93945Z" fill="#C8C8C8"/>
    <path fill-rule="evenodd" clip-rule="evenodd" d="M0 6.93945C0 4.86838 1.63588 3.18945 3.65385 3.18945H15.3462C17.3641 3.18945 19 4.86839 19 6.93945V16.25C19 18.3211 17.3641 20 15.3462 20H3.65385C1.63588 20 0 18.3211 0 16.25V6.93945ZM3.65385 4.68945C2.44307 4.68945 1.46154 5.69681 1.46154 6.93945V16.25C1.46154 17.4927 2.44307 18.5 3.65385 18.5H15.3462C16.5569 18.5 17.5385 17.4927 17.5385 16.25V6.93945C17.5385 5.69681 16.5569 4.68945 15.3462 4.68945H3.65385Z" fill="#C8C8C8"/>
    <path fill-rule="evenodd" clip-rule="evenodd" d="M5.11553 0C5.51913 0 5.8463 0.335786 5.8463 0.75V3.9397C5.8463 4.35392 5.51913 4.6897 5.11553 4.6897C4.71194 4.6897 4.38477 4.35392 4.38477 3.9397V0.75C4.38477 0.335786 4.71194 0 5.11553 0Z" fill="#C8C8C8"/>
    <path fill-rule="evenodd" clip-rule="evenodd" d="M13.8846 0C14.2882 0 14.6153 0.335786 14.6153 0.75V3.9397C14.6153 4.35392 14.2882 4.6897 13.8846 4.6897C13.481 4.6897 13.1538 4.35392 13.1538 3.9397V0.75C13.1538 0.335786 13.481 0 13.8846 0Z" fill="#C8C8C8"/>
    <path fill-rule="evenodd" clip-rule="evenodd" d="M1.94873 7.74951C1.94873 7.3353 2.27591 6.99951 2.6795 6.99951H16.3205C16.7241 6.99951 17.0513 7.3353 17.0513 7.74951C17.0513 8.16373 16.7241 8.49951 16.3205 8.49951H2.6795C2.27591 8.49951 1.94873 8.16373 1.94873 7.74951Z" fill="white"/>
</svg>

