<svg width="31" height="31" viewBox="0 0 31 31" fill="none" xmlns="http://www.w3.org/2000/svg">
    <path d="M1.08154 9.75038C1.08154 7.36143 3.01817 5.4248 5.40712 5.4248H25.5932C27.9821 5.4248 29.9188 7.36143 29.9188 9.75039V25.5928C29.9188 27.9818 27.9821 29.9184 25.5932 29.9184H5.40712C3.01817 29.9184 1.08154 27.9818 1.08154 25.5928V9.75038Z" fill="#6146C6" fill-opacity="0.9"/>
    <path fill-rule="evenodd" clip-rule="evenodd" d="M0 9.75073C0 6.76453 2.42079 4.34375 5.40698 4.34375H25.593C28.5792 4.34375 31 6.76454 31 9.75073V25.5931C31 28.5793 28.5792 31.0001 25.593 31.0001H5.40698C2.42079 31.0001 0 28.5793 0 25.5931V9.75073ZM5.40698 6.50654C3.61526 6.50654 2.16279 7.95901 2.16279 9.75073V25.5931C2.16279 27.3849 3.61526 28.8373 5.40698 28.8373H25.593C27.3847 28.8373 28.8372 27.3849 28.8372 25.5931V9.75073C28.8372 7.95901 27.3847 6.50654 25.593 6.50654H5.40698Z" fill="#6146C6" fill-opacity="0.9"/>
    <path fill-rule="evenodd" clip-rule="evenodd" d="M8.2894 0.000607586C8.88664 0.000403806 9.37096 0.484396 9.37117 1.08163L9.37265 5.42559C9.37285 6.02283 8.88886 6.50715 8.29162 6.50735C7.69439 6.50756 7.21006 6.02357 7.20986 5.42633L7.20838 1.08237C7.20817 0.485134 7.69216 0.000811366 8.2894 0.000607586Z" fill="#6146C6" fill-opacity="0.9"/>
    <path fill-rule="evenodd" clip-rule="evenodd" d="M22.7079 0C23.3051 0 23.7893 0.484157 23.7893 1.0814V4.87577C23.7893 5.473 23.3051 5.95716 22.7079 5.95716C22.1106 5.95716 21.6265 5.473 21.6265 4.87577V1.0814C21.6265 0.484157 22.1106 0 22.7079 0Z" fill="#6146C6" fill-opacity="0.9"/>
    <path fill-rule="evenodd" clip-rule="evenodd" d="M5.76953 11.7064C5.76953 11.1092 6.25369 10.625 6.85093 10.625L24.1532 10.625C24.7505 10.625 25.2346 11.1092 25.2346 11.7064C25.2346 12.3036 24.7505 12.7878 24.1532 12.7878L6.85093 12.7878C6.25369 12.7878 5.76953 12.3036 5.76953 11.7064Z" fill="white"/>
</svg>
