<svg width="19" height="17" viewBox="0 0 19 17" fill="none" xmlns="http://www.w3.org/2000/svg">
    <path d="M12.0203 9.84442C12.0203 11.2372 10.8928 12.3647 9.5 12.3647C8.10719 12.3647 6.97967 11.2372 6.97967 9.84442C6.97967 8.4516 8.10719 7.32409 9.5 7.32409C10.8928 7.32409 12.0203 8.4516 12.0203 9.84442ZM17.178 3.52799C18.1846 3.52799 19 4.34339 19 5.34996V10.1253V14.175C19 15.2479 18.13 16.1179 17.0571 16.1179H1.94292C0.870021 16.1179 0 15.2479 0 14.175V10.1214V5.34996C0 4.34339 0.8154 3.52799 1.82197 3.52799H5.46591L5.63758 2.80232C5.89897 1.67871 6.90164 0.882812 8.05647 0.882812H10.9474C12.1023 0.882812 13.1049 1.67871 13.3663 2.80232L13.5341 3.52799H17.178ZM3.8 6.15756C3.8 5.65427 3.39035 5.24462 2.88706 5.24462C2.37988 5.24462 1.97023 5.65427 1.97023 6.15756C1.97023 6.66084 2.37988 7.07049 2.88316 7.07049C3.39035 7.07439 3.8 6.66474 3.8 6.15756ZM13.9945 9.84442C13.9945 7.3631 11.9813 5.34996 9.5 5.34996C7.01869 5.34996 5.00554 7.3631 5.00554 9.84442C5.00554 12.3257 7.01869 14.3389 9.5 14.3389C11.9813 14.3389 13.9945 12.3257 13.9945 9.84442Z" fill="white"/>
</svg>
