<svg width="11" height="10" viewBox="0 0 11 10" fill="none" xmlns="http://www.w3.org/2000/svg">
    <path d="M0.377276 9.74982C0.324359 9.75014 0.271973 9.73926 0.223561 9.71789C0.17515 9.69652 0.13181 9.66514 0.0963896 9.62583C0.0609695 9.58651 0.0342716 9.54014 0.018051 9.48977C0.00183044 9.4394 -0.00354554 9.38617 0.00227646 9.33357L0.291026 6.70857C0.301305 6.62467 0.339627 6.54671 0.399776 6.48732L6.53478 0.35232C6.64624 0.240635 6.77863 0.15203 6.92438 0.091574C7.07013 0.0311184 7.22636 0 7.38415 0C7.54194 0 7.69818 0.0311184 7.84393 0.091574C7.98967 0.15203 8.12207 0.240635 8.23353 0.35232L9.39978 1.51857C9.51146 1.63003 9.60007 1.76242 9.66052 1.90817C9.72098 2.05392 9.7521 2.21016 9.7521 2.36794C9.7521 2.52573 9.72098 2.68197 9.66052 2.82772C9.60007 2.97347 9.51146 3.10586 9.39978 3.21732L3.26853 9.34857C3.20914 9.40872 3.13118 9.44704 3.04728 9.45732L0.422276 9.74607L0.377276 9.74982ZM1.02603 6.91857L0.801027 8.95107L2.83353 8.72607L8.87103 2.68857C8.91298 2.64676 8.94627 2.59709 8.96898 2.54239C8.99169 2.48769 9.00338 2.42905 9.00338 2.36982C9.00338 2.31059 8.99169 2.25195 8.96898 2.19725C8.94627 2.14255 8.91298 2.09288 8.87103 2.05107L7.70103 0.88107C7.65922 0.839118 7.60954 0.805831 7.55485 0.783118C7.50015 0.760406 7.4415 0.748715 7.38228 0.748715C7.32305 0.748715 7.26441 0.760406 7.20971 0.783118C7.15501 0.805831 7.10533 0.839118 7.06353 0.88107L1.02603 6.91857Z" fill="#BCBCBC"/>
    <path d="M7.25216 4.329C7.20281 4.32928 7.15388 4.31982 7.10819 4.30116C7.06251 4.2825 7.02095 4.255 6.98591 4.22025L4.65716 1.884C4.62219 1.84903 4.59446 1.80752 4.57554 1.76184C4.55661 1.71616 4.54688 1.66719 4.54688 1.61775C4.54688 1.5683 4.55661 1.51934 4.57554 1.47365C4.59446 1.42797 4.62219 1.38646 4.65716 1.3515C4.69212 1.31653 4.73363 1.2888 4.77932 1.26987C4.825 1.25095 4.87396 1.24121 4.92341 1.24121C4.97286 1.24121 5.02182 1.25095 5.0675 1.26987C5.11319 1.2888 5.15469 1.31653 5.18966 1.3515L7.52591 3.68775C7.56106 3.72261 7.58895 3.76408 7.60799 3.80978C7.62703 3.85548 7.63683 3.90449 7.63683 3.954C7.63683 4.0035 7.62703 4.05251 7.60799 4.09821C7.58895 4.14391 7.56106 4.18538 7.52591 4.22025C7.48998 4.25591 7.44721 4.28393 7.40016 4.30262C7.35311 4.32131 7.30277 4.33028 7.25216 4.329Z" fill="#BCBCBC"/>
    <path d="M4.65921 3.68893L1.73975 6.6084L2.27008 7.13873L5.18954 4.21926L4.65921 3.68893Z" fill="#BCBCBC"/>
    <path d="M9.8772 9.875H3.8772C3.77774 9.875 3.68236 9.83549 3.61203 9.76517C3.54171 9.69484 3.5022 9.59946 3.5022 9.5C3.5022 9.40054 3.54171 9.30516 3.61203 9.23483C3.68236 9.16451 3.77774 9.125 3.8772 9.125H9.8772C9.97665 9.125 10.072 9.16451 10.1424 9.23483C10.2127 9.30516 10.2522 9.40054 10.2522 9.5C10.2522 9.59946 10.2127 9.69484 10.1424 9.76517C10.072 9.83549 9.97665 9.875 9.8772 9.875Z" fill="#BCBCBC"/>
</svg>
