<svg width="44" height="44" viewBox="0 0 44 44" fill="none" xmlns="http://www.w3.org/2000/svg">
    <g filter="url(#filter0_d_0_3)">
        <rect x="5" y="3" width="34" height="34" rx="17" fill="#6146C6"/>
    </g>
    <path fill-rule="evenodd" clip-rule="evenodd" d="M24.6014 26H19.3947C17.3642 26 16 24.5773 16 22.4599V17.5618C16 15.4444 17.3642 14.0216 19.3947 14.0216H21.6009C21.8452 14.0216 22.0435 14.2196 22.0435 14.4635C22.0435 14.7074 21.8452 14.9053 21.6009 14.9053H19.3947C17.8699 14.9053 16.8851 15.9481 16.8851 17.5618V22.4599C16.8851 24.0735 17.8699 25.1163 19.3947 25.1163H24.6014C26.1262 25.1163 27.1116 24.0735 27.1116 22.4599V20.0868C27.1116 19.8429 27.3098 19.645 27.5541 19.645C27.7984 19.645 27.9967 19.8429 27.9967 20.0868V22.4599C27.9967 24.5773 26.6319 26 24.6014 26Z" fill="white"/>
    <path fill-rule="evenodd" clip-rule="evenodd" d="M20.0526 21.9107H21.8092C22.0334 21.9107 22.2435 21.8241 22.4022 21.6656L26.8331 17.2418C27.0148 17.0603 27.1151 16.8188 27.1151 16.5619C27.1151 16.3045 27.0148 16.0623 26.8331 15.8809L26.115 15.1639C25.7391 14.7898 25.1278 14.7898 24.7513 15.1639L20.3417 19.5665C20.1889 19.7191 20.1022 19.9218 20.0968 20.1368L20.0526 21.9107ZM21.8092 22.7947H19.5988C19.4796 22.7947 19.3651 22.7464 19.2819 22.661C19.1987 22.5761 19.1533 22.4612 19.1562 22.3417L19.2117 20.1153C19.2229 19.6723 19.4017 19.2557 19.7156 18.9417H19.7162L24.1258 14.5391C24.8468 13.8203 26.0193 13.8203 26.7404 14.5391L27.4585 15.256C27.8084 15.6048 28.0008 16.0685 28.0002 16.5622C28.0002 17.0559 27.8078 17.5189 27.4585 17.8671L23.0277 22.291C22.7025 22.6156 22.2694 22.7947 21.8092 22.7947Z" fill="white"/>
    <path fill-rule="evenodd" clip-rule="evenodd" d="M26.4624 18.6635C26.3491 18.6635 26.2358 18.6205 26.1496 18.5339L23.4554 15.8439C23.2825 15.6713 23.2825 15.3914 23.4554 15.2188C23.6283 15.0462 23.908 15.0462 24.0809 15.2188L26.7751 17.9094C26.948 18.082 26.948 18.3613 26.7751 18.5339C26.689 18.6205 26.5757 18.6635 26.4624 18.6635Z" fill="white"/>
    <defs>
        <filter id="filter0_d_0_3" x="0" y="0" width="44" height="44" filterUnits="userSpaceOnUse" color-interpolation-filters="sRGB">
            <feFlood flood-opacity="0" result="BackgroundImageFix"/>
            <feColorMatrix in="SourceAlpha" type="matrix" values="0 0 0 0 0 0 0 0 0 0 0 0 0 0 0 0 0 0 127 0" result="hardAlpha"/>
            <feMorphology radius="1" operator="dilate" in="SourceAlpha" result="effect1_dropShadow_0_3"/>
            <feOffset dy="2"/>
            <feGaussianBlur stdDeviation="2"/>
            <feComposite in2="hardAlpha" operator="out"/>
            <feColorMatrix type="matrix" values="0 0 0 0 0 0 0 0 0 0 0 0 0 0 0 0 0 0 0.1 0"/>
            <feBlend mode="normal" in2="BackgroundImageFix" result="effect1_dropShadow_0_3"/>
            <feBlend mode="normal" in="SourceGraphic" in2="effect1_dropShadow_0_3" result="shape"/>
        </filter>
    </defs>
</svg>
