<svg width="15" height="15" viewBox="0 0 15 15" fill="none" xmlns="http://www.w3.org/2000/svg">
    <path d="M1.88274 1.70011L2.6294 1.22023C3.33045 0.770464 4.25377 0.946855 4.7894 1.6314L5.85373 2.99583C6.31714 3.58992 6.37132 4.42054 5.98586 5.0493L4.91407 6.79902C5.22092 7.59204 5.71101 8.32214 6.38282 8.98972C7.02482 9.63779 7.79035 10.1505 8.63406 10.4973L10.2061 9.45791C10.8027 9.0646 11.5826 9.12485 12.1414 9.60717L13.4452 10.7301C14.0958 11.2911 14.2657 12.2591 13.8424 12.9956L13.3885 13.7851C12.9369 14.5706 12.1147 15.0325 11.2305 14.9961C9.14248 14.9114 6.89304 13.6018 4.48139 11.0675C2.06624 8.52926 0.818806 6.15968 0.740662 3.9616C0.707568 3.03666 1.14155 2.1761 1.88274 1.70011Z" fill="#6146C6"/>
</svg>
