<svg width="37" height="37" viewBox="0 0 37 37" fill="none" xmlns="http://www.w3.org/2000/svg">
    <g clip-path="url(#clip0_67_6757)">
        <path d="M18.4651 36.5737C28.4692 36.5737 36.5791 28.5312 36.5791 18.6103C36.5791 8.68944 28.4692 0.646973 18.4651 0.646973C8.461 0.646973 0.351074 8.68944 0.351074 18.6103C0.351074 28.5312 8.461 36.5737 18.4651 36.5737Z" fill="#FC3F1D"/>
        <path d="M25.0195 29.8882H21.0431V10.3849H19.2717C16.0247 10.3849 14.3239 11.9949 14.3239 14.3982C14.3239 17.1249 15.497 18.3882 17.9238 19.9982L19.9238 21.3349L14.176 29.8849H9.90039L15.0734 22.2515C12.0987 20.1449 10.4248 18.0882 10.4248 14.6182C10.4248 10.2815 13.4735 7.33154 19.2448 7.33154H24.9926V29.8815H25.0195V29.8882Z" fill="white"/>
    </g>
    <defs>
        <clipPath id="clip0_67_6757">
            <rect width="36.302" height="36" fill="white" transform="translate(0.313965 0.61084)"/>
        </clipPath>
    </defs>
</svg>
